<svg xmlns="http://www.w3.org/2000/svg" xmlns:xlink="http://www.w3.org/1999/xlink" width="172" height="164" viewBox="0 0 172 164">
  <defs>
    <clipPath id="clip-arrowsvg">
      <rect width="172" height="164"/>
    </clipPath>
  </defs>
  <g id="arrowsvg" clip-path="url(#clip-arrowsvg)">
    <g id="Union_11" data-name="Union 11" transform="translate(-15714.145 1633.856)" fill="none">
      <path d="M15800.146-1496.716l0,0-14.145-14.14,0,0-70-70,14.144-14.14,70,70,70-70,14.145,14.14-70,70,0,0-14.14,14.14Z" stroke="none"/>
      <path d="M 15800.14453125 -1499.542236328125 L 15800.146484375 -1499.544311523438 L 15800.1484375 -1499.54248046875 L 15811.5068359375 -1510.901123046875 L 15811.5048828125 -1510.903198242188 L 15812.8720703125 -1512.27001953125 L 15881.4609375 -1580.859252929688 L 15870.1455078125 -1592.171142578125 L 15800.14453125 -1522.169311523438 L 15798.73046875 -1523.58349609375 L 15730.142578125 -1592.171142578125 L 15718.828125 -1580.859375 L 15788.8798828125 -1510.809936523438 L 15788.8759765625 -1510.806518554688 L 15800.14453125 -1499.542236328125 M 15800.1484375 -1496.713989257812 L 15800.146484375 -1496.715942382812 L 15800.14453125 -1496.713989257812 L 15786 -1510.853759765625 L 15786.00390625 -1510.857421875 L 15715.9990234375 -1580.859497070312 L 15730.142578125 -1594.999389648438 L 15800.14453125 -1524.997680664062 L 15870.1455078125 -1594.999389648438 L 15884.2900390625 -1580.859497070312 L 15814.2861328125 -1510.855834960938 L 15814.2880859375 -1510.853759765625 L 15800.1484375 -1496.713989257812 Z" stroke="none" fill="#000"/>
    </g>
  </g>
</svg>
