<svg xmlns="http://www.w3.org/2000/svg" xmlns:xlink="http://www.w3.org/1999/xlink" width="172" height="171" viewBox="0 0 172 171">
  <defs>
    <clipPath id="clip-arrowright">
      <rect width="172" height="171"/>
    </clipPath>
  </defs>
  <g id="arrowright" clip-path="url(#clip-arrowright)">
    <g id="arrright">
      <g id="arr4" transform="translate(170.141 1.354) rotate(90)" fill="none">
        <path d="M84.147,0l0,0L70,14.14l0,0-70,70,14.144,14.14,70-70,70,70,14.145-14.14-70-70,0,0L84.149,0Z" stroke="none"/>
        <path d="M 84.14527130126953 2.828193664550781 L 72.87290954589844 14.09677886962891 L 72.87657928466797 14.10022735595703 L 2.828643798828125 84.14524841308594 L 14.14335632324219 95.45703887939453 L 84.1455078125 25.45525360107422 L 154.146728515625 95.45706939697266 L 165.4623413085938 84.14515686035156 L 96.87289428710938 15.55606842041016 L 95.50000762939453 14.17916107177734 L 95.50001525878906 14.17915344238281 L 84.14940643310547 2.828437805175781 L 84.1474609375 2.830390930175781 L 84.14527130126953 2.828193664550781 M 84.1455078125 0 L 84.1474609375 0.00196075439453125 L 84.1494140625 0 L 98.28905487060547 14.13977813720703 L 98.28710174560547 14.141845703125 L 168.2910003662109 84.1453857421875 L 154.146484375 98.2852783203125 L 84.1455078125 28.28368377685547 L 14.1435546875 98.2852783203125 L 1.52587890625e-05 84.1453857421875 L 70.00487518310547 14.1434326171875 L 70.00098419189453 14.13977813720703 L 84.1455078125 0 Z" stroke="none" fill="#000"/>
      </g>
      <g id="arr3" transform="translate(100.141 1.354) rotate(90)" fill="none">
        <path d="M84.147,0l0,0L70,14.14l0,0-70,70,14.144,14.14,70-70,70,70,14.145-14.14-70-70,0,0L84.149,0Z" stroke="none"/>
        <path d="M 84.14527130126953 2.828193664550781 L 72.87290954589844 14.09677886962891 L 72.87657928466797 14.10022735595703 L 2.828643798828125 84.14524841308594 L 14.14335632324219 95.45703887939453 L 84.1455078125 25.45525360107422 L 154.146728515625 95.45706939697266 L 165.4623413085938 84.14515686035156 L 96.87289428710938 15.55606842041016 L 95.50000762939453 14.17916107177734 L 95.50001525878906 14.17915344238281 L 84.14940643310547 2.828437805175781 L 84.1474609375 2.830390930175781 L 84.14527130126953 2.828193664550781 M 84.1455078125 0 L 84.1474609375 0.00196075439453125 L 84.1494140625 0 L 98.28905487060547 14.13977813720703 L 98.28710174560547 14.141845703125 L 168.2910003662109 84.1453857421875 L 154.146484375 98.2852783203125 L 84.1455078125 28.28368377685547 L 14.1435546875 98.2852783203125 L 1.52587890625e-05 84.1453857421875 L 70.00487518310547 14.1434326171875 L 70.00098419189453 14.13977813720703 L 84.1455078125 0 Z" stroke="none" fill="#000"/>
      </g>
    </g>
  </g>
</svg>
