<svg xmlns="http://www.w3.org/2000/svg" xmlns:xlink="http://www.w3.org/1999/xlink" width="172" height="164" viewBox="0 0 172 164">
  <defs>
    <style>
      .cls-1 {
        clip-path: url(#clip-experience);
      }

      .cls-2 {
        fill: none;
        stroke: #000;
        stroke-width: 2px;
      }
    </style>
    <clipPath id="clip-experience">
      <rect width="172" height="164"/>
    </clipPath>
  </defs>
  <g id="experience" class="cls-1">
    <path id="Union_10" data-name="Union 10" class="cls-2" d="M8,144a8.009,8.009,0,0,1-8-8V82.137a44.667,44.667,0,0,0,11.938,8.2c9.861,4.909,16.69,6.409,23.92,8,3.978.874,8.092,1.777,12.935,3.289,3.469,1.083,6.909,2.229,10.236,3.338,9.623,3.207,18.713,6.235,24.722,6.365.149,0,.28,0,.4,0,4.514,0,8.892-1.646,14.951-3.925,4.475-1.684,10.043-3.778,17.27-5.783,5.558-1.542,11.007-2.887,15.816-4.074,10.391-2.565,18.6-4.592,22.965-7.211,3.325-2,8.489-5.441,12.849-8.57V136a8.01,8.01,0,0,1-8,8ZM61.736,94.353c-4.949-1.5-10.066-3.057-14.017-4.02-2.185-.531-4.413-1.04-6.568-1.534-9.018-2.064-17.536-4.012-24.6-7.69C9.627,77.508,2.665,68.151,0,58.861v-23.1a8.009,8.009,0,0,1,8-8H52.826V7a7.008,7.008,0,0,1,7-7h48.351a7.008,7.008,0,0,1,7,7V27.759H160a8.01,8.01,0,0,1,8,8v20.45c-1.911,7.9-4.172,13.517-6.915,17.168a20.11,20.11,0,0,1-7.391,5.931c-.5.273-1.02.554-1.524.845-2,1.044-9.827,3.444-18.11,5.987-7.457,2.288-15.166,4.654-19.3,6.233-8.865,3.174-25.1,7.006-31.011,7.321-.127.007-.262.01-.4.01C79.356,99.7,70.4,96.984,61.736,94.353Zm46.512-66.595V10.939a4,4,0,0,0-4-4h-40.5a4,4,0,0,0-4,4V27.759Z" transform="translate(2 7)"/>
  </g>
</svg>
