<svg xmlns="http://www.w3.org/2000/svg" xmlns:xlink="http://www.w3.org/1999/xlink" width="172" height="164" viewBox="0 0 172 164">
  <defs>
    <style>
      .cls-1 {
        clip-path: url(#clip-github_3);
      }
    </style>
    <clipPath id="clip-github_3">
      <rect width="172" height="164"/>
    </clipPath>
  </defs>
  <g id="github_3" data-name="github – 3" class="cls-1">
    <path id="Exclusion_1" data-name="Exclusion 1" d="M146.753,158.753H12a12,12,0,0,1-12-12V12A12,12,0,0,1,12,0H146.753a12,12,0,0,1,12,12V146.753a12,12,0,0,1-12,12ZM23.423,58.556V135.33H48.146V58.556Zm87.819,35.2.015.008v40.913h23.894V93.088a44.811,44.811,0,0,0-.493-10.294,40.3,40.3,0,0,0-3.37-11.055,26.171,26.171,0,0,0-7.068-9.194,22.13,22.13,0,0,0-11.585-4.713,39.036,39.036,0,0,0-4.371-.252c-14.493,0-21.729,8.63-23.032,10.36V59.207H61.809v75.471H85.232V90.918c.643-3.77,3.252-12.554,13.577-12.691h.215a10.913,10.913,0,0,1,8.253,3.244,14.906,14.906,0,0,1,3.609,7.851,22.076,22.076,0,0,1,.355,4.437ZM35.133,20.82a14.314,14.314,0,1,0,10.121,4.193A14.22,14.22,0,0,0,35.133,20.82Z" transform="translate(6.624 2.624)"/>
  </g>
</svg>
