<svg xmlns="http://www.w3.org/2000/svg" xmlns:xlink="http://www.w3.org/1999/xlink" width="172" height="164" viewBox="0 0 172 164">
  <defs>
    <clipPath id="clip-githubsvg">
      <rect width="172" height="164"/>
    </clipPath>
  </defs>
  <g id="githubsvg" clip-path="url(#clip-githubsvg)">
    <path id="Subtraction_6" data-name="Subtraction 6" d="M57.606,152.032a81.029,81.029,0,0,1-23.047-10.664,79.442,79.442,0,0,1-18.241-16.889,76.458,76.458,0,0,1-12-21.725,75.346,75.346,0,0,1,1.989-55.37,76.813,76.813,0,0,1,7.4-13.179,78.78,78.78,0,0,1,9.8-11.482A80.312,80.312,0,0,1,35.386,13.25a81.316,81.316,0,0,1,28.7-11.674,83.785,83.785,0,0,1,32.35,0,81.317,81.317,0,0,1,28.7,11.674,80.311,80.311,0,0,1,11.878,9.474,78.781,78.781,0,0,1,9.8,11.482,76.811,76.811,0,0,1,7.4,13.179,75.476,75.476,0,0,1,2.05,55.2,76.433,76.433,0,0,1-11.836,21.611,79.412,79.412,0,0,1-18.008,16.866,81.012,81.012,0,0,1-22.775,10.763c-2.036-.914-3.807-2.656-3.776-3.388.324-7.72.361-14.3.11-19.549a62.386,62.386,0,0,0-1.289-10.867c-1.171-4.962-2.8-5.961-3.982-6.691a6.323,6.323,0,0,1-.662-.445c-.061-.048-.129-.106-.19-.158a60.07,60.07,0,0,0,8.842-1.071,41.338,41.338,0,0,0,8.03-2.5,43.825,43.825,0,0,0,8.133-4.59c12.227-8.64,12.208-17.366,12.187-26.6q0-.281,0-.563t0-.565A36.186,36.186,0,0,0,129.6,64.3a25.875,25.875,0,0,0-5.171-9.459c-.653-.754-1.354-1.5-2.084-2.218a94.887,94.887,0,0,0,1.513-10.61,29.9,29.9,0,0,0-.074-6.475c-.306-1.987-.953-3.145-1.924-3.442a5.067,5.067,0,0,0-1.461-.181,27.134,27.134,0,0,0-7.438,1.542c-5.36,1.714-12.063,5.241-13.271,6.463a69.24,69.24,0,0,0-19.785-2.876,74.291,74.291,0,0,0-20.172,2.776c-1.37-1.306-7.75-4.675-13.025-6.362a27.134,27.134,0,0,0-7.438-1.542,5.07,5.07,0,0,0-1.462.181c-.958.294-1.6,1.419-1.905,3.344a28.594,28.594,0,0,0-.088,6.306,92.3,92.3,0,0,0,1.53,10.635l-.2.208a29.719,29.719,0,0,0-6.43,10.592,34.793,34.793,0,0,0-1.953,11.659,40.622,40.622,0,0,0,3.351,15.776,30.788,30.788,0,0,0,10.125,13.079c4.265,3.014,9.827,5,17.005,6.08,2.176.327,4.462.571,6.989.746l-.461.293-.113.072c-2.272,1.436-3.89,4.939-4.809,10.41-1.144,1.3-3.262,1.961-6.3,1.961a45.654,45.654,0,0,1-11.472-1.957c-1.791-.523-4.61-4.041-7.1-7.145a34.078,34.078,0,0,0-4.174-4.714c-1.679-1.262-4.781-1.826-7.111-1.826a7.267,7.267,0,0,0-3.419.63.605.605,0,0,0-.321.658c.113.741,1.3,1.966,3.248,3.361a17.711,17.711,0,0,0,3.976,2.279c.684.163,1.7,2.155,3.1,4.912a65.754,65.754,0,0,0,5.8,9.86c2.519,3.316,9.36,4.012,14.655,4.012a70.387,70.387,0,0,0,8.2-.492l.016-.059c-.08,6.592.4,12.575.575,14.827.034.433.057.719.062.834.046,1.163-2.08,2.9-3,3.6h0Z" transform="translate(5.74 5.984)" fill="none" stroke="#000" stroke-width="2"/>
  </g>
</svg>
