<svg xmlns="http://www.w3.org/2000/svg" xmlns:xlink="http://www.w3.org/1999/xlink" width="172" height="164" viewBox="0 0 172 164">
  <defs>
    <style>
      .cls-1 {
        clip-path: url(#clip-facebook);
      }
    </style>
    <clipPath id="clip-facebook">
      <rect width="172" height="164"/>
    </clipPath>
  </defs>
  <g id="facebook" class="cls-1">
    <path id="Subtraction_1" data-name="Subtraction 1" d="M79.688,160.736H12a12,12,0,0,1-12-12V12A12,12,0,0,1,12,0H148.738a12,12,0,0,1,12,12V148.734a12,12,0,0,1-12,12H104.445c-.065-9.188-.366-55.126,0-57.272.118-.686,2.157-1.005,6.416-1.005,2.253,0,4.795.086,7.643.189l.356.013c2.488.091,4.838.176,6.675.176,2.372,0,3.526-.146,3.632-.459a115.523,115.523,0,0,0,.553-12.625c.073-7.266-.133-11.94-.552-12.5-.288-.385-2.59-.58-6.844-.58-7.233,0-17.775.575-17.88.58l0-.025c-.04-.909-.377-9.2,0-20.162a6.082,6.082,0,0,1,.99-3.287,5.957,5.957,0,0,1,2.411-1.975,17.578,17.578,0,0,1,7.4-1.219c1.848,0,3.7.119,5.59.251l.428.03c1.617.113,3.144.221,4.4.221,2.276,0,3.356-.366,3.5-1.188.72-4.05,1.267-20.524,0-21.425-.375-.265-3.1-.4-8.1-.4-8.527,0-20.845.4-20.969.4a30.716,30.716,0,0,0-9.3,4.677A28.018,28.018,0,0,0,83.9,40.328a27.24,27.24,0,0,0-4.22,11.6,67.638,67.638,0,0,0-.183,13.665c.08,1.263.156,2.453.183,3.543.142,5.76,0,8.093,0,8.116-.061,0-7.439-.419-12.78-.419-3.123,0-4.932.141-5.375.419-.171.107-.32.509-.443,1.2-.3,1.677-.552,6.1-.358,13.491.146,5.548.49,10.036.8,10.438.157.2.983.3,2.526.3,1.768,0,4.269-.13,6.687-.256l.033,0c2.4-.125,4.876-.253,6.6-.253a7.214,7.214,0,0,1,2.307.207c1.543.745.173,52.464.012,58.359Z" transform="translate(5.631 1.632)"/>
  </g>
</svg>
