<svg xmlns="http://www.w3.org/2000/svg" xmlns:xlink="http://www.w3.org/1999/xlink" width="324" height="660" viewBox="0 0 324 660">
  <defs>
    <style>
      .cls-1 {
        clip-path: url(#clip-image);
      }

      .cls-2 {
        fill: #fff;
        stroke: #000;
        stroke-width: 0.5px;
      }
    </style>
    <clipPath id="clip-image">
      <rect width="324" height="660"/>
    </clipPath>
  </defs>
  <g id="image" class="cls-1">
    <g id="Group_55" data-name="Group 55" transform="translate(-1231.465 -228.875)">
      <path id="Path_59" data-name="Path 59" class="cls-2" d="M2337.452,2371.107s6.963,51.292,10.4,57.455,8.12,14.614,10.566,20.482,17.322,63.279,18.689,65.119,3.917,4.623,4.249,7.215.372,7.031,1.49,8.678,8.643,17.228,9.013,19.387.542,14.828,0,17.053-9.054,15.4-10.5,15.554-1.654-.372-2.421,0-1.986,2.9-3.251,2.7-3.246-1.746-3.093-2.7.178-3.814.677-4.657,11.177-6.5,10.985-10.055a16.161,16.161,0,0,0-2.9-8.265c-1.015-1.163-2.866-6.749-3.594-6.046s3.522,14.278-1.34,14.311-4.581-8.949-6.311-15.977-3.268-5.967-3.345-7.807,1.5-14.814,0-17.6-40.375-59.064-41.952-70.254-1.37-11.522-2.226-15.793-12.489-34.792-12.392-39.64-.668-11.735,0-12.489,6.483-11.06,6.483-11.06l14.559-8.184Z" transform="translate(-846.728 -1979.277)"/>
      <path id="Path_60" data-name="Path 60" class="cls-2" d="M2097.055,2381.6s-15.121,25.238-16.515,28.534-6.738,19.85-9.114,23.672-39.207,51.228-40.274,55.853-.45,12.344-1.038,15.592-5.408,13.1-5.735,14.271-4.826,13.887-7.833,11.445-2.131-7-1.771-8.276,3.774-6.543,2.927-6.811-1.952,1.037-2.927,1.938-2.049,5.075-2.725,6.49-1.966,2.185-1.677,3.086,1.258,1.616,1.677,3.573,4.314,10.9,4.5,12.125.355,3.9-.9,3.933-2.8-1.622-3.6-1.981-2.82,1.125-3.5.675-8.269-9.386-8.612-11.521-.058-2.763-.54-3.231a5.575,5.575,0,0,1-1.94-2.89c-.257-1.437,3.727-13.474,4.15-16.316s3.164-4.182,3.872-5.823,9.19-14.377,9.292-15.449-.08-4.156.871-5.556,4.185-6.206,4.667-7.676,21.905-62.153,27.354-66.412,25.244-50.877,25.276-51.757,4.774-2.513,4.774-2.513l15.116,6.979,6.892,9.553Z" transform="translate(-756 -1975.806)"/>
      <path id="Path_61" data-name="Path 61" class="cls-2" d="M2172.281,2734.188s4.432,12.2,4.364,18.31.192,16.552-.72,20.074-3.008,25.075-2.793,30.941,4.688,33.955,6.7,38.6,4.215,14.258,5.036,15.775,14.047,42.483,14.183,43.945.224,9.673,0,12.291.285,4.334,0,6.352-.949,12.813,2.889,15.259,11.326,4.192,13.216,3.4,8.025-6.616,9.125-6.82,7.288-2.878,9.826-2.8,9.881.568,10.879,0,4.035-1.607,4.249-3.243.7-4.781-2.6-4.81-5.541-1.687-8.3-2.975-12.472-5.471-13.12-7.533-9.961-29.253-10.057-30.93-.935-7.628-.794-9.1-3.5-71.759-3.009-73.776,1.806-16.622,2.1-19.157,2.271-6.537,2.271-8.646,2.18-21.037,1.747-22.933,0-10.293,0-10.293l-1.747-15.312-14.014.578-29.43,6.977Z" transform="translate(-806.763 -2081.562)"/>
      <path id="Path_62" data-name="Path 62" class="cls-2" d="M2264.572,2741.006s-4.957,27.546-4.728,30.776a50.256,50.256,0,0,1-.864,11.474c-.577,2.217-5.13,9.847-5.168,11.127s-6.439,9.918-7.2,10.906-6.034,18.953-8.884,22.708-33.529,52.735-34.783,54.331-12.272,24.826-12.2,25.814-3.175,10.226-1.5,12.949,2.589,5.073,3.455,5.677,7.551,7.149,8.4,8.747,9.363,11.476,10.162,11.819,6.425,4.578,8.413,5.141,9.644,4,10.659,3.969,5.045-.061,5.865.692.9,4.068,0,4.6-2.2.092-2.63.809-.992,1.9-2.225,2.187-4.94-.37-5.671,0-4.9,1.363-6,1-2.4-1.911-3.995-2.341-4.874,0-5.691,0-3.966-.018-4.647-.848-22.088-16.179-27.671-16.775-17.727-2.791-19.038-3.5-11.252-2.833-11.209-10.231,5.016-16.2,6.13-17.7,12.771-20.46,13.118-23.788,10.274-24.341,10.586-25.727,8-20.606,8.216-23.165,8.74-29.749,16.482-38.476,10.394-10.8,11.115-13.816.08-19.345.728-22.5-1-18.208-.728-20.98,35.551-9.771,35.551-9.771Z" transform="translate(-799.547 -2086.005)"/>
      <path id="Path_63" data-name="Path 63" class="cls-2" d="M2243.352,2486.943s.634,10.271,1.894,11.111,3.841,2.042,4.681,3.826.208,5.68.838,7.255,1.751,12.928,3.238,15.429a24.809,24.809,0,0,1,2.79,11.673c-.262,3.621-1.659,23.642-.872,28.031s7.292,97.458,7.24,99.137-20.7,7.583-25.51,8.773-31.554,4.419-34.973,0c-1.391-1.8-4.316-3.769-5.674-7.084-1.794-4.377-1.87-10.1-2.669-10.495-1.346-.674-4.427,3.346-7.173,3.879s-39.679,8.946-47.526,7.025-15.424-8.135-16.567-9.951-1.18-4.373-1.977-5.568-7.738-8.557-7.847-9.864,5.979-32.67,5.9-35.03,4.92-44.021,4.647-46.916-1.368-14.13-.807-16.49,3.751-10.375,4.038-12.148,1.228-20.767,2.194-23.661,10.388-13.492,10.915-15.52a86.479,86.479,0,0,0,.881-9.413l80.92.7Z" transform="translate(-789.621 -2011.915)"/>
      <path id="Path_64" data-name="Path 64" class="cls-2" d="M2240.544,2257.528s-3.444-1.662-2.881-2.471,6.462-9.4,7.177-13.293,1.025-14.394,1.939-14.323,3.629-1.015,3.769-2.364-.142-4.866.375-5.427a55.24,55.24,0,0,0,3.591-8.57c.118-.959.779-6.278.465-6.706s-3.206-.789-3.671-.391-14.932,8.268-14.932,8.268l-5.149,7.4-10.555,1.771-16.6-.591-12.776-5.922-4.552-5.862s-3.149.475-3.7,1.428-1.111,3.672-.436,4.434a16.487,16.487,0,0,1,2.482,4.743c.365,1.423,2.952,2.44,3.38,3.418s1.966,3,1.9,3.508-.784,3.8,0,4.426,3.984.311,4.493-.42c.975-.748,1.787-1.276,1.856-.982.088.377-.626,3.759-.331,5.042s.662,6.742.975,7.122,2.325,2.724,2.413,3.329-8.562,8.48-9.407,8.635,3.007,5.9,3.007,5.9l18.252,4.886h17.148l11.358-3.6Z" transform="translate(-809.67 -1931.449)"/>
      <path id="Path_65" data-name="Path 65" class="cls-2" d="M2220.19,2215.327c-1.618-.337-2.708-3.137-5.027-2.955s-5.766,1.738-8.057,1.666-6.291-3.476-7.994-3.594a15.453,15.453,0,0,1-6.583-3.08c-1.016-1.07-3.2-5.2-3.985-5.8s-3.43-3.94-3.267-4.62.63-9.526,1.774-10.9,3.179-8.835,3.365-9.751,3.414-5.9,3.844-7.136,1.241-4.18,2.085-4.765,7.054-6.9,11.306-6.949,10.1-2.446,11.972-2.087,11.7.6,12.69,1.239,9.061,7.069,9.859,8.356,3.493,6.59,4.123,7.851,3.364,6.071,4.47,6.434,2.964,1.9,2.932,2.624-1.6,3.739-1.388,4.187,1.1,3.853.9,4.515-.346,4.841-.9,5.767-1.4,4.507-2.636,4.453-3.525-4.207-4.232-3.832-3.871,6.306-5,7.689-3.793,3.774-4.609,4.728-6.5,5.313-7.541,5.259S2221.807,2215.665,2220.19,2215.327Z" transform="translate(-810.534 -1917.369)"/>
      <path id="Path_66" data-name="Path 66" class="cls-2" d="M2222.8,2185.33c-1.045.232-1.8,17.006-1.22,19.18s1.229,3.456,1.22,4.665.143,7.318,1.14,7.393,2.544-3.659,2.913-4.027,3.121-2.985,3.132-4.03,1.129-4.815.514-5.39-.644-3.067-.514-3.731-.031-3.791-.77-4.139-1.8-1.6-1.615-2.083.616-2.426,0-3.335S2223.845,2185.1,2222.8,2185.33Z" transform="translate(-821.019 -1926.08)"/>
      <path id="Path_67" data-name="Path 67" class="cls-2" d="M2245.573,2216.5c.656-.738,1-16.55.457-17.541s-2.963-2.2-3.708-1.587-3.438,3.216-3.335,4.118,1.468,2.3,1.635,3.744,1.1,3.177.875,4.549-.83,3.091,0,3.983,1.467,2.375,2.728,2.735S2245.573,2216.5,2245.573,2216.5Z" transform="translate(-826.13 -1929.531)"/>
      <path id="Path_68" data-name="Path 68" class="cls-2" d="M2250.694,2553.578c2.059-.574,2.842-.546,3.539,0,.413.323,1.578,3.333,1.177,3.946-.98,1.5-4.069,2.1-5.07,1.212s-1.513-3.188-1.111-3.843A5.464,5.464,0,0,1,2250.694,2553.578Z" transform="translate(-829.065 -2032.883)"/>
      <path id="Path_69" data-name="Path 69" class="cls-2" d="M2224.815,2551.761c.526.354,19.777-.786,20.706-.717s20.934.138,21.233,0a3,3,0,0,0,0-2.387c-.359-.323-41.458-.5-41.939,0S2224.289,2551.406,2224.815,2551.761Z" transform="translate(-821.907 -2031.486)"/>
      <path id="Path_70" data-name="Path 70" class="cls-2" d="M2224.3,2542.978c-.509.561-.376,2.744,0,2.848s21.531-.488,22.151-.4,19.684.434,19.835,0,.508-2.95,0-3.118-22.4-.117-23.391,0S2224.809,2542.416,2224.3,2542.978Z" transform="translate(-821.77 -2029.701)"/>
      <path id="Path_71" data-name="Path 71" class="cls-2" d="M2161.729,2425.927s-4.725-2.06-7.952-1.48-5.163,1.657-7.174,1.48-13.313-6.734-12-9.78,4.115-4.33,4.169-5.006-1.067-2.861,0-3.792,2.425-2.406,1.869-3.719-4.836-4.341-5.352-7.757-1.918-22.038-2.416-23.5-4.2-16.452-5.081-15.712-1.174-4.915-2.921-5.215-23.69-13.565-23.217-21.258-.042-3.67,0-6.606,17.017-39.608,31.194-40.791,30.294-11.067,32.377-10.157,14.508,7.872,19.048,7.523c.794-.061,15.424-.184,17.529-.369,8.779-.771,14.141-2.42,15.823-1.86,2.039.679,3.039,3.209,4.143,3.629s8.476,3.384,10.617,5.318,12.334,6.829,14.585,6.541,11.954,1.861,13.988,3.547,16.83,29.516,18.358,30.925,7.01,7.356,6.886,7.982-13.775,10.477-14.226,11.06-21.785,10.293-22.077,11.884-1.444,11.267-1.9,12.707-2.712,5.6-2.712,6.238-.012,4.373-.569,5.3-3.634,4.89-3.846,5.827.448,6.26.475,7.595-2.085,6.98-2.3,9.18-1.142,10.145,0,10.989,5.053,4.7,4.651,6.674a4.893,4.893,0,0,1-3.966,3.517c-1.281,0-26.067-1.341-28.093-.918s-32.226,3.234-33.9,2.655S2161.729,2425.927,2161.729,2425.927Z" transform="translate(-786.253 -1951.416)"/>
    </g>
  </g>
</svg>
