<svg xmlns="http://www.w3.org/2000/svg" xmlns:xlink="http://www.w3.org/1999/xlink" width="411" height="382" viewBox="0 0 411 382">
  <defs>
    <linearGradient id="linear-gradient" x1="0.5" x2="0.5" y2="0.939" gradientUnits="objectBoundingBox">
      <stop offset="0" stop-color="#fff"/>
      <stop offset="0.727" stop-color="#fff"/>
      <stop offset="1" stop-color="#f7f7f7"/>
    </linearGradient>
    <clipPath id="clip-path">
      <rect width="443" height="382" fill="none"/>
    </clipPath>
    <clipPath id="clip-projDetailBackground">
      <rect width="411" height="382"/>
    </clipPath>
  </defs>
  <g id="projDetailBackground" clip-path="url(#clip-projDetailBackground)">
    <rect width="411" height="382" fill="#f0f0f0"/>
    <rect id="Rectangle_28" data-name="Rectangle 28" width="411" height="382" fill="url(#linear-gradient)"/>
    <g id="Repeat_Grid_3" data-name="Repeat Grid 3" transform="translate(-32)" clip-path="url(#clip-path)">
      <g transform="translate(529.5 -1648)">
        <line id="Line_9" data-name="Line 9" x2="69" transform="translate(-529.5 1648.5)" fill="none" stroke="#e0e0e0" stroke-width="1"/>
        <line id="Line_10" data-name="Line 10" x2="69" transform="translate(-529 1649) rotate(90)" fill="none" stroke="#e0e0e0" stroke-width="1"/>
      </g>
      <g transform="translate(597.5 -1648)">
        <line id="Line_9-2" data-name="Line 9" x2="69" transform="translate(-529.5 1648.5)" fill="none" stroke="#e0e0e0" stroke-width="1"/>
        <line id="Line_10-2" data-name="Line 10" x2="69" transform="translate(-529 1649) rotate(90)" fill="none" stroke="#e0e0e0" stroke-width="1"/>
      </g>
      <g transform="translate(665.5 -1648)">
        <line id="Line_9-3" data-name="Line 9" x2="69" transform="translate(-529.5 1648.5)" fill="none" stroke="#e0e0e0" stroke-width="1"/>
        <line id="Line_10-3" data-name="Line 10" x2="69" transform="translate(-529 1649) rotate(90)" fill="none" stroke="#e0e0e0" stroke-width="1"/>
      </g>
      <g transform="translate(733.5 -1648)">
        <line id="Line_9-4" data-name="Line 9" x2="69" transform="translate(-529.5 1648.5)" fill="none" stroke="#e0e0e0" stroke-width="1"/>
        <line id="Line_10-4" data-name="Line 10" x2="69" transform="translate(-529 1649) rotate(90)" fill="none" stroke="#e0e0e0" stroke-width="1"/>
      </g>
      <g transform="translate(801.5 -1648)">
        <line id="Line_9-5" data-name="Line 9" x2="69" transform="translate(-529.5 1648.5)" fill="none" stroke="#e0e0e0" stroke-width="1"/>
        <line id="Line_10-5" data-name="Line 10" x2="69" transform="translate(-529 1649) rotate(90)" fill="none" stroke="#e0e0e0" stroke-width="1"/>
      </g>
      <g transform="translate(869.5 -1648)">
        <line id="Line_9-6" data-name="Line 9" x2="69" transform="translate(-529.5 1648.5)" fill="none" stroke="#e0e0e0" stroke-width="1"/>
        <line id="Line_10-6" data-name="Line 10" x2="69" transform="translate(-529 1649) rotate(90)" fill="none" stroke="#e0e0e0" stroke-width="1"/>
      </g>
      <g transform="translate(937.5 -1648)">
        <line id="Line_9-7" data-name="Line 9" x2="69" transform="translate(-529.5 1648.5)" fill="none" stroke="#e0e0e0" stroke-width="1"/>
        <line id="Line_10-7" data-name="Line 10" x2="69" transform="translate(-529 1649) rotate(90)" fill="none" stroke="#e0e0e0" stroke-width="1"/>
      </g>
      <g transform="translate(529.5 -1579)">
        <line id="Line_9-8" data-name="Line 9" x2="69" transform="translate(-529.5 1648.5)" fill="none" stroke="#e0e0e0" stroke-width="1"/>
        <line id="Line_10-8" data-name="Line 10" x2="69" transform="translate(-529 1649) rotate(90)" fill="none" stroke="#e0e0e0" stroke-width="1"/>
      </g>
      <g transform="translate(597.5 -1579)">
        <line id="Line_9-9" data-name="Line 9" x2="69" transform="translate(-529.5 1648.5)" fill="none" stroke="#e0e0e0" stroke-width="1"/>
        <line id="Line_10-9" data-name="Line 10" x2="69" transform="translate(-529 1649) rotate(90)" fill="none" stroke="#e0e0e0" stroke-width="1"/>
      </g>
      <g transform="translate(665.5 -1579)">
        <line id="Line_9-10" data-name="Line 9" x2="69" transform="translate(-529.5 1648.5)" fill="none" stroke="#e0e0e0" stroke-width="1"/>
        <line id="Line_10-10" data-name="Line 10" x2="69" transform="translate(-529 1649) rotate(90)" fill="none" stroke="#e0e0e0" stroke-width="1"/>
      </g>
      <g transform="translate(733.5 -1579)">
        <line id="Line_9-11" data-name="Line 9" x2="69" transform="translate(-529.5 1648.5)" fill="none" stroke="#e0e0e0" stroke-width="1"/>
        <line id="Line_10-11" data-name="Line 10" x2="69" transform="translate(-529 1649) rotate(90)" fill="none" stroke="#e0e0e0" stroke-width="1"/>
      </g>
      <g transform="translate(801.5 -1579)">
        <line id="Line_9-12" data-name="Line 9" x2="69" transform="translate(-529.5 1648.5)" fill="none" stroke="#e0e0e0" stroke-width="1"/>
        <line id="Line_10-12" data-name="Line 10" x2="69" transform="translate(-529 1649) rotate(90)" fill="none" stroke="#e0e0e0" stroke-width="1"/>
      </g>
      <g transform="translate(869.5 -1579)">
        <line id="Line_9-13" data-name="Line 9" x2="69" transform="translate(-529.5 1648.5)" fill="none" stroke="#e0e0e0" stroke-width="1"/>
        <line id="Line_10-13" data-name="Line 10" x2="69" transform="translate(-529 1649) rotate(90)" fill="none" stroke="#e0e0e0" stroke-width="1"/>
      </g>
      <g transform="translate(937.5 -1579)">
        <line id="Line_9-14" data-name="Line 9" x2="69" transform="translate(-529.5 1648.5)" fill="none" stroke="#e0e0e0" stroke-width="1"/>
        <line id="Line_10-14" data-name="Line 10" x2="69" transform="translate(-529 1649) rotate(90)" fill="none" stroke="#e0e0e0" stroke-width="1"/>
      </g>
      <g transform="translate(529.5 -1510)">
        <line id="Line_9-15" data-name="Line 9" x2="69" transform="translate(-529.5 1648.5)" fill="none" stroke="#e0e0e0" stroke-width="1"/>
        <line id="Line_10-15" data-name="Line 10" x2="69" transform="translate(-529 1649) rotate(90)" fill="none" stroke="#e0e0e0" stroke-width="1"/>
      </g>
      <g transform="translate(597.5 -1510)">
        <line id="Line_9-16" data-name="Line 9" x2="69" transform="translate(-529.5 1648.5)" fill="none" stroke="#e0e0e0" stroke-width="1"/>
        <line id="Line_10-16" data-name="Line 10" x2="69" transform="translate(-529 1649) rotate(90)" fill="none" stroke="#e0e0e0" stroke-width="1"/>
      </g>
      <g transform="translate(665.5 -1510)">
        <line id="Line_9-17" data-name="Line 9" x2="69" transform="translate(-529.5 1648.5)" fill="none" stroke="#e0e0e0" stroke-width="1"/>
        <line id="Line_10-17" data-name="Line 10" x2="69" transform="translate(-529 1649) rotate(90)" fill="none" stroke="#e0e0e0" stroke-width="1"/>
      </g>
      <g transform="translate(733.5 -1510)">
        <line id="Line_9-18" data-name="Line 9" x2="69" transform="translate(-529.5 1648.5)" fill="none" stroke="#e0e0e0" stroke-width="1"/>
        <line id="Line_10-18" data-name="Line 10" x2="69" transform="translate(-529 1649) rotate(90)" fill="none" stroke="#e0e0e0" stroke-width="1"/>
      </g>
      <g transform="translate(801.5 -1510)">
        <line id="Line_9-19" data-name="Line 9" x2="69" transform="translate(-529.5 1648.5)" fill="none" stroke="#e0e0e0" stroke-width="1"/>
        <line id="Line_10-19" data-name="Line 10" x2="69" transform="translate(-529 1649) rotate(90)" fill="none" stroke="#e0e0e0" stroke-width="1"/>
      </g>
      <g transform="translate(869.5 -1510)">
        <line id="Line_9-20" data-name="Line 9" x2="69" transform="translate(-529.5 1648.5)" fill="none" stroke="#e0e0e0" stroke-width="1"/>
        <line id="Line_10-20" data-name="Line 10" x2="69" transform="translate(-529 1649) rotate(90)" fill="none" stroke="#e0e0e0" stroke-width="1"/>
      </g>
      <g transform="translate(937.5 -1510)">
        <line id="Line_9-21" data-name="Line 9" x2="69" transform="translate(-529.5 1648.5)" fill="none" stroke="#e0e0e0" stroke-width="1"/>
        <line id="Line_10-21" data-name="Line 10" x2="69" transform="translate(-529 1649) rotate(90)" fill="none" stroke="#e0e0e0" stroke-width="1"/>
      </g>
      <g transform="translate(529.5 -1441)">
        <line id="Line_9-22" data-name="Line 9" x2="69" transform="translate(-529.5 1648.5)" fill="none" stroke="#e0e0e0" stroke-width="1"/>
        <line id="Line_10-22" data-name="Line 10" x2="69" transform="translate(-529 1649) rotate(90)" fill="none" stroke="#e0e0e0" stroke-width="1"/>
      </g>
      <g transform="translate(597.5 -1441)">
        <line id="Line_9-23" data-name="Line 9" x2="69" transform="translate(-529.5 1648.5)" fill="none" stroke="#e0e0e0" stroke-width="1"/>
        <line id="Line_10-23" data-name="Line 10" x2="69" transform="translate(-529 1649) rotate(90)" fill="none" stroke="#e0e0e0" stroke-width="1"/>
      </g>
      <g transform="translate(665.5 -1441)">
        <line id="Line_9-24" data-name="Line 9" x2="69" transform="translate(-529.5 1648.5)" fill="none" stroke="#e0e0e0" stroke-width="1"/>
        <line id="Line_10-24" data-name="Line 10" x2="69" transform="translate(-529 1649) rotate(90)" fill="none" stroke="#e0e0e0" stroke-width="1"/>
      </g>
      <g transform="translate(733.5 -1441)">
        <line id="Line_9-25" data-name="Line 9" x2="69" transform="translate(-529.5 1648.5)" fill="none" stroke="#e0e0e0" stroke-width="1"/>
        <line id="Line_10-25" data-name="Line 10" x2="69" transform="translate(-529 1649) rotate(90)" fill="none" stroke="#e0e0e0" stroke-width="1"/>
      </g>
      <g transform="translate(801.5 -1441)">
        <line id="Line_9-26" data-name="Line 9" x2="69" transform="translate(-529.5 1648.5)" fill="none" stroke="#e0e0e0" stroke-width="1"/>
        <line id="Line_10-26" data-name="Line 10" x2="69" transform="translate(-529 1649) rotate(90)" fill="none" stroke="#e0e0e0" stroke-width="1"/>
      </g>
      <g transform="translate(869.5 -1441)">
        <line id="Line_9-27" data-name="Line 9" x2="69" transform="translate(-529.5 1648.5)" fill="none" stroke="#e0e0e0" stroke-width="1"/>
        <line id="Line_10-27" data-name="Line 10" x2="69" transform="translate(-529 1649) rotate(90)" fill="none" stroke="#e0e0e0" stroke-width="1"/>
      </g>
      <g transform="translate(937.5 -1441)">
        <line id="Line_9-28" data-name="Line 9" x2="69" transform="translate(-529.5 1648.5)" fill="none" stroke="#e0e0e0" stroke-width="1"/>
        <line id="Line_10-28" data-name="Line 10" x2="69" transform="translate(-529 1649) rotate(90)" fill="none" stroke="#e0e0e0" stroke-width="1"/>
      </g>
      <g transform="translate(529.5 -1372)">
        <line id="Line_9-29" data-name="Line 9" x2="69" transform="translate(-529.5 1648.5)" fill="none" stroke="#e0e0e0" stroke-width="1"/>
        <line id="Line_10-29" data-name="Line 10" x2="69" transform="translate(-529 1649) rotate(90)" fill="none" stroke="#e0e0e0" stroke-width="1"/>
      </g>
      <g transform="translate(597.5 -1372)">
        <line id="Line_9-30" data-name="Line 9" x2="69" transform="translate(-529.5 1648.5)" fill="none" stroke="#e0e0e0" stroke-width="1"/>
        <line id="Line_10-30" data-name="Line 10" x2="69" transform="translate(-529 1649) rotate(90)" fill="none" stroke="#e0e0e0" stroke-width="1"/>
      </g>
      <g transform="translate(665.5 -1372)">
        <line id="Line_9-31" data-name="Line 9" x2="69" transform="translate(-529.5 1648.5)" fill="none" stroke="#e0e0e0" stroke-width="1"/>
        <line id="Line_10-31" data-name="Line 10" x2="69" transform="translate(-529 1649) rotate(90)" fill="none" stroke="#e0e0e0" stroke-width="1"/>
      </g>
      <g transform="translate(733.5 -1372)">
        <line id="Line_9-32" data-name="Line 9" x2="69" transform="translate(-529.5 1648.5)" fill="none" stroke="#e0e0e0" stroke-width="1"/>
        <line id="Line_10-32" data-name="Line 10" x2="69" transform="translate(-529 1649) rotate(90)" fill="none" stroke="#e0e0e0" stroke-width="1"/>
      </g>
      <g transform="translate(801.5 -1372)">
        <line id="Line_9-33" data-name="Line 9" x2="69" transform="translate(-529.5 1648.5)" fill="none" stroke="#e0e0e0" stroke-width="1"/>
        <line id="Line_10-33" data-name="Line 10" x2="69" transform="translate(-529 1649) rotate(90)" fill="none" stroke="#e0e0e0" stroke-width="1"/>
      </g>
      <g transform="translate(869.5 -1372)">
        <line id="Line_9-34" data-name="Line 9" x2="69" transform="translate(-529.5 1648.5)" fill="none" stroke="#e0e0e0" stroke-width="1"/>
        <line id="Line_10-34" data-name="Line 10" x2="69" transform="translate(-529 1649) rotate(90)" fill="none" stroke="#e0e0e0" stroke-width="1"/>
      </g>
      <g transform="translate(937.5 -1372)">
        <line id="Line_9-35" data-name="Line 9" x2="69" transform="translate(-529.5 1648.5)" fill="none" stroke="#e0e0e0" stroke-width="1"/>
        <line id="Line_10-35" data-name="Line 10" x2="69" transform="translate(-529 1649) rotate(90)" fill="none" stroke="#e0e0e0" stroke-width="1"/>
      </g>
      <g transform="translate(529.5 -1303)">
        <line id="Line_9-36" data-name="Line 9" x2="69" transform="translate(-529.5 1648.5)" fill="none" stroke="#e0e0e0" stroke-width="1"/>
        <line id="Line_10-36" data-name="Line 10" x2="69" transform="translate(-529 1649) rotate(90)" fill="none" stroke="#e0e0e0" stroke-width="1"/>
      </g>
      <g transform="translate(597.5 -1303)">
        <line id="Line_9-37" data-name="Line 9" x2="69" transform="translate(-529.5 1648.5)" fill="none" stroke="#e0e0e0" stroke-width="1"/>
        <line id="Line_10-37" data-name="Line 10" x2="69" transform="translate(-529 1649) rotate(90)" fill="none" stroke="#e0e0e0" stroke-width="1"/>
      </g>
      <g transform="translate(665.5 -1303)">
        <line id="Line_9-38" data-name="Line 9" x2="69" transform="translate(-529.5 1648.5)" fill="none" stroke="#e0e0e0" stroke-width="1"/>
        <line id="Line_10-38" data-name="Line 10" x2="69" transform="translate(-529 1649) rotate(90)" fill="none" stroke="#e0e0e0" stroke-width="1"/>
      </g>
      <g transform="translate(733.5 -1303)">
        <line id="Line_9-39" data-name="Line 9" x2="69" transform="translate(-529.5 1648.5)" fill="none" stroke="#e0e0e0" stroke-width="1"/>
        <line id="Line_10-39" data-name="Line 10" x2="69" transform="translate(-529 1649) rotate(90)" fill="none" stroke="#e0e0e0" stroke-width="1"/>
      </g>
      <g transform="translate(801.5 -1303)">
        <line id="Line_9-40" data-name="Line 9" x2="69" transform="translate(-529.5 1648.5)" fill="none" stroke="#e0e0e0" stroke-width="1"/>
        <line id="Line_10-40" data-name="Line 10" x2="69" transform="translate(-529 1649) rotate(90)" fill="none" stroke="#e0e0e0" stroke-width="1"/>
      </g>
      <g transform="translate(869.5 -1303)">
        <line id="Line_9-41" data-name="Line 9" x2="69" transform="translate(-529.5 1648.5)" fill="none" stroke="#e0e0e0" stroke-width="1"/>
        <line id="Line_10-41" data-name="Line 10" x2="69" transform="translate(-529 1649) rotate(90)" fill="none" stroke="#e0e0e0" stroke-width="1"/>
      </g>
      <g transform="translate(937.5 -1303)">
        <line id="Line_9-42" data-name="Line 9" x2="69" transform="translate(-529.5 1648.5)" fill="none" stroke="#e0e0e0" stroke-width="1"/>
        <line id="Line_10-42" data-name="Line 10" x2="69" transform="translate(-529 1649) rotate(90)" fill="none" stroke="#e0e0e0" stroke-width="1"/>
      </g>
    </g>
  </g>
</svg>
